<svg xmlns="http://www.w3.org/2000/svg" width="1024" height="1024" viewBox="0 0 1024 1024">
  <defs>
    <filter id="shadow" x="-20%" y="-20%" width="140%" height="150%">
      <feDropShadow dx="0" dy="22" stdDeviation="28" flood-color="#000000" flood-opacity="0.34"/>
    </filter>
    <filter id="cellShadow" x="-30%" y="-30%" width="160%" height="170%">
      <feDropShadow dx="0" dy="8" stdDeviation="8" flood-color="#000000" flood-opacity="0.26"/>
    </filter>
  </defs>

  <rect x="64" y="64" width="896" height="896" rx="220" fill="#F7F9FA" filter="url(#shadow)"/>
  <rect x="74" y="74" width="876" height="876" rx="210" fill="none" stroke="#D9E0E5" stroke-width="10"/>

  <g filter="url(#cellShadow)">
    <rect x="162" y="194" width="100" height="160" rx="28" fill="#1B2026"/>
    <rect x="282" y="194" width="100" height="160" rx="28" fill="#1B2026"/>
    <rect x="402" y="194" width="100" height="160" rx="28" fill="#1B2026"/>
    <rect x="522" y="194" width="100" height="160" rx="28" fill="#1B2026"/>
    <rect x="642" y="194" width="100" height="160" rx="28" fill="#1B2026"/>
    <rect x="762" y="194" width="100" height="160" rx="28" fill="#1B2026"/>
  </g>

  <g fill="#F7F9FA" font-family="SF Pro Rounded, SF Pro Display, -apple-system, sans-serif" font-size="82" font-weight="700" text-anchor="middle">
    <text x="212" y="303">1</text>
    <text x="332" y="303">2</text>
    <text x="452" y="303">3</text>
    <text x="572" y="303">4</text>
    <text x="692" y="303">5</text>
    <text x="812" y="303">6</text>
  </g>

  <path d="M512 407 V568" fill="none" stroke="#43D9A3" stroke-width="52" stroke-linecap="round"/>
  <path d="M432 515 L512 595 L592 515" fill="none" stroke="#43D9A3" stroke-width="52" stroke-linecap="round" stroke-linejoin="round"/>

  <g fill="#F7F9FA" stroke="#1B2026" stroke-width="10">
    <rect x="162" y="670" width="100" height="160" rx="28"/>
    <rect x="282" y="670" width="100" height="160" rx="28"/>
    <rect x="402" y="670" width="100" height="160" rx="28"/>
    <rect x="522" y="670" width="100" height="160" rx="28"/>
    <rect x="642" y="670" width="100" height="160" rx="28"/>
    <rect x="762" y="670" width="100" height="160" rx="28"/>
  </g>
</svg>
